# xmcd
#
# Track frame offsets: 
#        150
#        14799
#        29695
#        44033
#        58733
#        72516
#        87882
#        101936
#        114005
#        129346
#        144125
#        157321
#        171702
#        186820
#        200572
#        213889
#        227529
#        241299
#        254301
#        269936
#
# Disc length: 3780 seconds
#
# Revision: 1
# Processed by: cddbd v1.5.2PL0 Copyright (c) Steve Scherf et al.
# Submitted via: ExactAudioCopyFreeDBPlugin 1.0
#
DISCID=370ec214
DTITLE=Various Artist - Jazzowanki Wyciszanki
DYEAR=2010
DGENRE=Jazz
TTITLE0=Frank Sinatra and Jo Staffor - I'll Never Smile Again
TTITLE1=Frank Sinatra - A Lovely Way To Spend An Evening
TTITLE2=Frank Sinatra - Brahm's Lullaby (the Cradle Song)
TTITLE3=Frank Sinatra - I Fall In Love Too Easily
TTITLE4=Glenn Miller - Rhapsody in Blue
TTITLE5=Glenn Miller - Moonlight Serenade
TTITLE6=Nat King Cole - What'll I Do?
TTITLE7=Nat King Cole - Nature Boy
TTITLE8=Nat King Cole - Embraceable You
TTITLE9=Nat King Cole - Please Consider Me
TTITLE10=Nat King Cole - For Sentimental Reasons
TTITLE11=Nat King Cole - I Want To Thanks Your Folks
TTITLE12=Ella Fitzgerald - He's My Guy
TTITLE13=Ella Fitzgerald - Jim
TTITLE14=Ella Fitzgerald - This Love Of Mine
TTITLE15=Louis Armstrong - I Wonder
TTITLE16=Duke Ellington - Across The Track Blues
TTITLE17=Duke Ellington - Carnegie Blues
TTITLE18=Duke Ellington - Concerto For Cootie
TTITLE19=Duke Ellington - Don't You Know I Care (Or Don't You Care To 
TTITLE19=Know)
EXTD=
EXTT0=
EXTT1=
EXTT2=
EXTT3=
EXTT4=
EXTT5=
EXTT6=
EXTT7=
EXTT8=
EXTT9=
EXTT10=
EXTT11=
EXTT12=
EXTT13=
EXTT14=
EXTT15=
EXTT16=
EXTT17=
EXTT18=
EXTT19=
PLAYORDER=
